<mxfile host="app.diagrams.net" modified="2023-10-24T13:49:42.359Z" agent="Mozilla/5.0 (X11; Ubuntu; Linux x86_64; rv:109.0) Gecko/20100101 Firefox/119.0" etag="SRt9UqqH1QS1LlFZAvLa" version="22.0.6" type="google">
  <diagram name="Page-1" id="Yxc_b4KDxOehg264hF-i">
    <mxGraphModel grid="1" page="1" gridSize="10" guides="1" tooltips="1" connect="1" arrows="1" fold="1" pageScale="1" pageWidth="827" pageHeight="1169" math="0" shadow="0">
      <root>
        <mxCell id="0" />
        <mxCell id="1" parent="0" />
        <mxCell id="oFMm2v5QkO-AcwL_Ac-e-1" style="edgeStyle=orthogonalEdgeStyle;rounded=0;orthogonalLoop=1;jettySize=auto;html=1;entryX=0.5;entryY=0;entryDx=0;entryDy=0;" edge="1" parent="1" source="oFMm2v5QkO-AcwL_Ac-e-2" target="oFMm2v5QkO-AcwL_Ac-e-4">
          <mxGeometry relative="1" as="geometry">
            <mxPoint x="200" y="230" as="targetPoint" />
          </mxGeometry>
        </mxCell>
        <mxCell id="oFMm2v5QkO-AcwL_Ac-e-2" value="" style="ellipse;whiteSpace=wrap;html=1;rounded=0;shadow=0;comic=0;labelBackgroundColor=none;strokeWidth=1;fillColor=#000000;fontFamily=Verdana;fontSize=12;align=center;" vertex="1" parent="1">
          <mxGeometry x="180" y="120" width="40" height="40" as="geometry" />
        </mxCell>
        <mxCell id="oFMm2v5QkO-AcwL_Ac-e-3" value="Association" style="text;html=1;strokeColor=none;fillColor=none;align=center;verticalAlign=middle;whiteSpace=wrap;rounded=0;" vertex="1" parent="1">
          <mxGeometry x="155" y="60" width="90" height="50" as="geometry" />
        </mxCell>
        <mxCell id="oFMm2v5QkO-AcwL_Ac-e-19" style="edgeStyle=orthogonalEdgeStyle;rounded=0;orthogonalLoop=1;jettySize=auto;html=1;" edge="1" parent="1" source="oFMm2v5QkO-AcwL_Ac-e-4" target="oFMm2v5QkO-AcwL_Ac-e-20">
          <mxGeometry relative="1" as="geometry">
            <mxPoint x="390" y="280" as="targetPoint" />
            <Array as="points">
              <mxPoint x="200" y="250" />
              <mxPoint x="385" y="250" />
            </Array>
          </mxGeometry>
        </mxCell>
        <mxCell id="oFMm2v5QkO-AcwL_Ac-e-4" value="Cliquer sur se connecter" style="rounded=1;whiteSpace=wrap;html=1;shadow=0;comic=0;labelBackgroundColor=none;strokeWidth=1;fontFamily=Verdana;fontSize=12;align=center;arcSize=50;" vertex="1" parent="1">
          <mxGeometry x="150" y="210" width="100" height="30" as="geometry" />
        </mxCell>
        <mxCell id="oFMm2v5QkO-AcwL_Ac-e-5" value="Base de données" style="text;html=1;strokeColor=none;fillColor=none;align=center;verticalAlign=middle;whiteSpace=wrap;rounded=0;" vertex="1" parent="1">
          <mxGeometry x="610" y="60" width="90" height="50" as="geometry" />
        </mxCell>
        <mxCell id="oFMm2v5QkO-AcwL_Ac-e-6" value="" style="endArrow=none;dashed=1;html=1;dashPattern=1 3;strokeWidth=2;rounded=0;" edge="1" parent="1">
          <mxGeometry width="50" height="50" relative="1" as="geometry">
            <mxPoint x="280" y="1780" as="sourcePoint" />
            <mxPoint x="280" y="80" as="targetPoint" />
          </mxGeometry>
        </mxCell>
        <mxCell id="oFMm2v5QkO-AcwL_Ac-e-7" value="" style="endArrow=none;dashed=1;html=1;dashPattern=1 3;strokeWidth=2;rounded=0;" edge="1" parent="1">
          <mxGeometry width="50" height="50" relative="1" as="geometry">
            <mxPoint x="510" y="1780" as="sourcePoint" />
            <mxPoint x="500" y="80" as="targetPoint" />
          </mxGeometry>
        </mxCell>
        <mxCell id="oFMm2v5QkO-AcwL_Ac-e-23" style="edgeStyle=orthogonalEdgeStyle;rounded=0;orthogonalLoop=1;jettySize=auto;html=1;entryX=0.5;entryY=0;entryDx=0;entryDy=0;" edge="1" parent="1" source="oFMm2v5QkO-AcwL_Ac-e-9" target="oFMm2v5QkO-AcwL_Ac-e-24">
          <mxGeometry relative="1" as="geometry">
            <mxPoint x="180" y="440" as="targetPoint" />
          </mxGeometry>
        </mxCell>
        <mxCell id="oFMm2v5QkO-AcwL_Ac-e-9" value="Entrer nom et mot de passe " style="rounded=1;whiteSpace=wrap;html=1;shadow=0;comic=0;labelBackgroundColor=none;strokeWidth=1;fontFamily=Verdana;fontSize=12;align=center;arcSize=50;" vertex="1" parent="1">
          <mxGeometry x="130" y="370" width="100" height="30" as="geometry" />
        </mxCell>
        <mxCell id="oFMm2v5QkO-AcwL_Ac-e-11" value="Vérifier que le nom et le mot de passe sont bon" style="rounded=1;whiteSpace=wrap;html=1;shadow=0;comic=0;labelBackgroundColor=none;strokeWidth=1;fontFamily=Verdana;fontSize=12;align=center;arcSize=50;" vertex="1" parent="1">
          <mxGeometry x="590" y="520" width="110" height="50" as="geometry" />
        </mxCell>
        <mxCell id="oFMm2v5QkO-AcwL_Ac-e-12" value="" style="edgeStyle=orthogonalEdgeStyle;rounded=0;orthogonalLoop=1;jettySize=auto;html=1;entryX=0.5;entryY=0;entryDx=0;entryDy=0;" edge="1" parent="1" target="oFMm2v5QkO-AcwL_Ac-e-13">
          <mxGeometry relative="1" as="geometry">
            <mxPoint x="639.5" y="570" as="sourcePoint" />
            <mxPoint x="640" y="610" as="targetPoint" />
          </mxGeometry>
        </mxCell>
        <mxCell id="oFMm2v5QkO-AcwL_Ac-e-17" style="edgeStyle=orthogonalEdgeStyle;rounded=0;orthogonalLoop=1;jettySize=auto;html=1;entryX=0.5;entryY=0;entryDx=0;entryDy=0;" edge="1" parent="1" source="oFMm2v5QkO-AcwL_Ac-e-13" target="oFMm2v5QkO-AcwL_Ac-e-16">
          <mxGeometry relative="1" as="geometry">
            <Array as="points">
              <mxPoint x="640" y="650" />
              <mxPoint x="380" y="650" />
            </Array>
          </mxGeometry>
        </mxCell>
        <mxCell id="oFMm2v5QkO-AcwL_Ac-e-26" style="edgeStyle=orthogonalEdgeStyle;rounded=0;orthogonalLoop=1;jettySize=auto;html=1;entryX=1;entryY=0.5;entryDx=0;entryDy=0;" edge="1" parent="1" source="oFMm2v5QkO-AcwL_Ac-e-13" target="oFMm2v5QkO-AcwL_Ac-e-20">
          <mxGeometry relative="1" as="geometry">
            <Array as="points">
              <mxPoint x="770" y="615" />
              <mxPoint x="770" y="290" />
            </Array>
          </mxGeometry>
        </mxCell>
        <mxCell id="oFMm2v5QkO-AcwL_Ac-e-13" value="" style="rhombus;whiteSpace=wrap;html=1;" vertex="1" parent="1">
          <mxGeometry x="615" y="590" width="50" height="50" as="geometry" />
        </mxCell>
        <mxCell id="oFMm2v5QkO-AcwL_Ac-e-15" value="[not ok]" style="edgeLabel;html=1;align=center;verticalAlign=middle;resizable=0;points=[];" connectable="0" vertex="1" parent="1">
          <mxGeometry x="690" y="630" as="geometry" />
        </mxCell>
        <mxCell id="oFMm2v5QkO-AcwL_Ac-e-29" style="edgeStyle=orthogonalEdgeStyle;rounded=0;orthogonalLoop=1;jettySize=auto;html=1;" edge="1" parent="1" source="oFMm2v5QkO-AcwL_Ac-e-16" target="oFMm2v5QkO-AcwL_Ac-e-28">
          <mxGeometry relative="1" as="geometry">
            <Array as="points">
              <mxPoint x="380" y="730" />
              <mxPoint x="165" y="730" />
            </Array>
          </mxGeometry>
        </mxCell>
        <mxCell id="oFMm2v5QkO-AcwL_Ac-e-16" value="Afficher la page d&#39;accueil" style="rounded=1;whiteSpace=wrap;html=1;shadow=0;comic=0;labelBackgroundColor=none;strokeWidth=1;fontFamily=Verdana;fontSize=12;align=center;arcSize=50;" vertex="1" parent="1">
          <mxGeometry x="325" y="670" width="110" height="50" as="geometry" />
        </mxCell>
        <mxCell id="oFMm2v5QkO-AcwL_Ac-e-18" value="Site Web" style="text;html=1;align=center;verticalAlign=middle;resizable=0;points=[];autosize=1;strokeColor=none;fillColor=none;" vertex="1" parent="1">
          <mxGeometry x="360" y="70" width="70" height="30" as="geometry" />
        </mxCell>
        <mxCell id="oFMm2v5QkO-AcwL_Ac-e-21" style="edgeStyle=orthogonalEdgeStyle;rounded=0;orthogonalLoop=1;jettySize=auto;html=1;" edge="1" parent="1" source="oFMm2v5QkO-AcwL_Ac-e-20" target="oFMm2v5QkO-AcwL_Ac-e-9">
          <mxGeometry relative="1" as="geometry">
            <Array as="points">
              <mxPoint x="385" y="330" />
              <mxPoint x="180" y="330" />
            </Array>
          </mxGeometry>
        </mxCell>
        <mxCell id="oFMm2v5QkO-AcwL_Ac-e-20" value="Afficher la page de connexion" style="rounded=1;whiteSpace=wrap;html=1;shadow=0;comic=0;labelBackgroundColor=none;strokeWidth=1;fontFamily=Verdana;fontSize=12;align=center;arcSize=50;" vertex="1" parent="1">
          <mxGeometry x="345" y="270" width="95" height="40" as="geometry" />
        </mxCell>
        <mxCell id="oFMm2v5QkO-AcwL_Ac-e-22" value="&lt;font style=&quot;font-size: 17px;&quot;&gt;&lt;b&gt;Diagramme d&#39;activité modifier une fiche&lt;/b&gt;&lt;/font&gt;" style="text;html=1;align=center;verticalAlign=middle;resizable=0;points=[];autosize=1;strokeColor=none;fillColor=none;" vertex="1" parent="1">
          <mxGeometry x="219" y="20" width="340" height="30" as="geometry" />
        </mxCell>
        <mxCell id="oFMm2v5QkO-AcwL_Ac-e-25" style="edgeStyle=orthogonalEdgeStyle;rounded=0;orthogonalLoop=1;jettySize=auto;html=1;" edge="1" parent="1" source="oFMm2v5QkO-AcwL_Ac-e-24" target="oFMm2v5QkO-AcwL_Ac-e-11">
          <mxGeometry relative="1" as="geometry">
            <Array as="points">
              <mxPoint x="180" y="500" />
              <mxPoint x="645" y="500" />
            </Array>
          </mxGeometry>
        </mxCell>
        <mxCell id="oFMm2v5QkO-AcwL_Ac-e-24" value="Appuyer sur se connecter" style="rounded=1;whiteSpace=wrap;html=1;shadow=0;comic=0;labelBackgroundColor=none;strokeWidth=1;fontFamily=Verdana;fontSize=12;align=center;arcSize=50;" vertex="1" parent="1">
          <mxGeometry x="132.5" y="440" width="95" height="40" as="geometry" />
        </mxCell>
        <mxCell id="oFMm2v5QkO-AcwL_Ac-e-27" value="[ok]" style="text;html=1;align=center;verticalAlign=middle;resizable=0;points=[];autosize=1;strokeColor=none;fillColor=none;" vertex="1" parent="1">
          <mxGeometry x="550" y="618" width="40" height="30" as="geometry" />
        </mxCell>
        <mxCell id="oFMm2v5QkO-AcwL_Ac-e-31" style="edgeStyle=orthogonalEdgeStyle;rounded=0;orthogonalLoop=1;jettySize=auto;html=1;entryX=0.5;entryY=0;entryDx=0;entryDy=0;" edge="1" parent="1" source="oFMm2v5QkO-AcwL_Ac-e-28" target="oFMm2v5QkO-AcwL_Ac-e-30">
          <mxGeometry relative="1" as="geometry">
            <Array as="points">
              <mxPoint x="165" y="810" />
              <mxPoint x="380" y="810" />
            </Array>
          </mxGeometry>
        </mxCell>
        <mxCell id="oFMm2v5QkO-AcwL_Ac-e-28" value="Cliquer sur modifier une fiche" style="rounded=1;whiteSpace=wrap;html=1;shadow=0;comic=0;labelBackgroundColor=none;strokeWidth=1;fontFamily=Verdana;fontSize=12;align=center;arcSize=50;" vertex="1" parent="1">
          <mxGeometry x="110" y="750" width="110" height="50" as="geometry" />
        </mxCell>
        <mxCell id="oFMm2v5QkO-AcwL_Ac-e-33" style="edgeStyle=orthogonalEdgeStyle;rounded=0;orthogonalLoop=1;jettySize=auto;html=1;" edge="1" parent="1" source="oFMm2v5QkO-AcwL_Ac-e-30" target="oFMm2v5QkO-AcwL_Ac-e-32">
          <mxGeometry relative="1" as="geometry">
            <Array as="points">
              <mxPoint x="380" y="890" />
              <mxPoint x="165" y="890" />
            </Array>
          </mxGeometry>
        </mxCell>
        <mxCell id="oFMm2v5QkO-AcwL_Ac-e-30" value="Afficher la page des fiches " style="rounded=1;whiteSpace=wrap;html=1;shadow=0;comic=0;labelBackgroundColor=none;strokeWidth=1;fontFamily=Verdana;fontSize=12;align=center;arcSize=50;" vertex="1" parent="1">
          <mxGeometry x="325" y="830" width="110" height="50" as="geometry" />
        </mxCell>
        <mxCell id="oFMm2v5QkO-AcwL_Ac-e-46" style="edgeStyle=orthogonalEdgeStyle;rounded=0;orthogonalLoop=1;jettySize=auto;html=1;" edge="1" parent="1" source="oFMm2v5QkO-AcwL_Ac-e-32" target="oFMm2v5QkO-AcwL_Ac-e-45">
          <mxGeometry relative="1" as="geometry">
            <Array as="points">
              <mxPoint x="165" y="990" />
              <mxPoint x="380" y="990" />
            </Array>
          </mxGeometry>
        </mxCell>
        <mxCell id="oFMm2v5QkO-AcwL_Ac-e-32" value="Choisir le fichier à modifier" style="rounded=1;whiteSpace=wrap;html=1;shadow=0;comic=0;labelBackgroundColor=none;strokeWidth=1;fontFamily=Verdana;fontSize=12;align=center;arcSize=50;" vertex="1" parent="1">
          <mxGeometry x="110" y="930" width="110" height="50" as="geometry" />
        </mxCell>
        <mxCell id="oFMm2v5QkO-AcwL_Ac-e-36" style="edgeStyle=orthogonalEdgeStyle;rounded=0;orthogonalLoop=1;jettySize=auto;html=1;entryX=0.5;entryY=0;entryDx=0;entryDy=0;" edge="1" parent="1" source="oFMm2v5QkO-AcwL_Ac-e-35" target="oFMm2v5QkO-AcwL_Ac-e-37">
          <mxGeometry relative="1" as="geometry">
            <mxPoint x="174" y="1250" as="targetPoint" />
          </mxGeometry>
        </mxCell>
        <mxCell id="oFMm2v5QkO-AcwL_Ac-e-35" value="Modifier les informations voulues" style="rounded=1;whiteSpace=wrap;html=1;shadow=0;comic=0;labelBackgroundColor=none;strokeWidth=1;fontFamily=Verdana;fontSize=12;align=center;arcSize=50;" vertex="1" parent="1">
          <mxGeometry x="119" y="1140" width="110" height="50" as="geometry" />
        </mxCell>
        <mxCell id="oFMm2v5QkO-AcwL_Ac-e-40" style="edgeStyle=orthogonalEdgeStyle;rounded=0;orthogonalLoop=1;jettySize=auto;html=1;" edge="1" parent="1" source="oFMm2v5QkO-AcwL_Ac-e-37" target="oFMm2v5QkO-AcwL_Ac-e-39">
          <mxGeometry relative="1" as="geometry">
            <Array as="points">
              <mxPoint x="174" y="1320" />
              <mxPoint x="654" y="1320" />
            </Array>
          </mxGeometry>
        </mxCell>
        <mxCell id="oFMm2v5QkO-AcwL_Ac-e-37" value="Confirmer " style="rounded=1;whiteSpace=wrap;html=1;shadow=0;comic=0;labelBackgroundColor=none;strokeWidth=1;fontFamily=Verdana;fontSize=12;align=center;arcSize=50;" vertex="1" parent="1">
          <mxGeometry x="119" y="1250" width="110" height="50" as="geometry" />
        </mxCell>
        <mxCell id="oFMm2v5QkO-AcwL_Ac-e-42" style="edgeStyle=orthogonalEdgeStyle;rounded=0;orthogonalLoop=1;jettySize=auto;html=1;" edge="1" parent="1" source="oFMm2v5QkO-AcwL_Ac-e-39" target="oFMm2v5QkO-AcwL_Ac-e-41">
          <mxGeometry relative="1" as="geometry" />
        </mxCell>
        <mxCell id="oFMm2v5QkO-AcwL_Ac-e-39" value="Vérifier le bon format des informations" style="rounded=1;whiteSpace=wrap;html=1;shadow=0;comic=0;labelBackgroundColor=none;strokeWidth=1;fontFamily=Verdana;fontSize=12;align=center;arcSize=50;" vertex="1" parent="1">
          <mxGeometry x="599" y="1340" width="110" height="50" as="geometry" />
        </mxCell>
        <mxCell id="oFMm2v5QkO-AcwL_Ac-e-49" style="edgeStyle=orthogonalEdgeStyle;rounded=0;orthogonalLoop=1;jettySize=auto;html=1;entryX=0.5;entryY=0;entryDx=0;entryDy=0;" edge="1" parent="1" source="oFMm2v5QkO-AcwL_Ac-e-41" target="oFMm2v5QkO-AcwL_Ac-e-48">
          <mxGeometry relative="1" as="geometry" />
        </mxCell>
        <mxCell id="oFMm2v5QkO-AcwL_Ac-e-52" style="edgeStyle=orthogonalEdgeStyle;rounded=0;orthogonalLoop=1;jettySize=auto;html=1;entryX=1;entryY=0.5;entryDx=0;entryDy=0;" edge="1" parent="1" source="oFMm2v5QkO-AcwL_Ac-e-41" target="oFMm2v5QkO-AcwL_Ac-e-45">
          <mxGeometry relative="1" as="geometry">
            <Array as="points">
              <mxPoint x="770" y="1465" />
              <mxPoint x="770" y="1055" />
            </Array>
          </mxGeometry>
        </mxCell>
        <mxCell id="oFMm2v5QkO-AcwL_Ac-e-41" value="" style="rhombus;whiteSpace=wrap;html=1;" vertex="1" parent="1">
          <mxGeometry x="629" y="1440" width="50" height="50" as="geometry" />
        </mxCell>
        <mxCell id="oFMm2v5QkO-AcwL_Ac-e-47" style="edgeStyle=orthogonalEdgeStyle;rounded=0;orthogonalLoop=1;jettySize=auto;html=1;entryX=0.5;entryY=0;entryDx=0;entryDy=0;" edge="1" parent="1" source="oFMm2v5QkO-AcwL_Ac-e-45" target="oFMm2v5QkO-AcwL_Ac-e-35">
          <mxGeometry relative="1" as="geometry">
            <Array as="points">
              <mxPoint x="385" y="1090" />
              <mxPoint x="174" y="1090" />
            </Array>
          </mxGeometry>
        </mxCell>
        <mxCell id="oFMm2v5QkO-AcwL_Ac-e-45" value="Afficher la page de modification" style="rounded=1;whiteSpace=wrap;html=1;shadow=0;comic=0;labelBackgroundColor=none;strokeWidth=1;fontFamily=Verdana;fontSize=12;align=center;arcSize=50;" vertex="1" parent="1">
          <mxGeometry x="330" y="1030" width="110" height="50" as="geometry" />
        </mxCell>
        <mxCell id="oFMm2v5QkO-AcwL_Ac-e-58" style="edgeStyle=orthogonalEdgeStyle;rounded=0;orthogonalLoop=1;jettySize=auto;html=1;entryX=0.5;entryY=0;entryDx=0;entryDy=0;" edge="1" parent="1" source="oFMm2v5QkO-AcwL_Ac-e-48" target="oFMm2v5QkO-AcwL_Ac-e-57">
          <mxGeometry relative="1" as="geometry">
            <Array as="points">
              <mxPoint x="654" y="1640" />
              <mxPoint x="395" y="1640" />
            </Array>
          </mxGeometry>
        </mxCell>
        <mxCell id="oFMm2v5QkO-AcwL_Ac-e-48" value="Enregistrer les nouvelles informations " style="rounded=1;whiteSpace=wrap;html=1;shadow=0;comic=0;labelBackgroundColor=none;strokeWidth=1;fontFamily=Verdana;fontSize=12;align=center;arcSize=50;" vertex="1" parent="1">
          <mxGeometry x="598" y="1550" width="111" height="50" as="geometry" />
        </mxCell>
        <mxCell id="oFMm2v5QkO-AcwL_Ac-e-50" value="[ok]" style="text;html=1;align=center;verticalAlign=middle;resizable=0;points=[];autosize=1;strokeColor=none;fillColor=none;" vertex="1" parent="1">
          <mxGeometry x="660" y="1500" width="40" height="30" as="geometry" />
        </mxCell>
        <mxCell id="oFMm2v5QkO-AcwL_Ac-e-53" value="[not ok]" style="text;html=1;align=center;verticalAlign=middle;resizable=0;points=[];autosize=1;strokeColor=none;fillColor=none;" vertex="1" parent="1">
          <mxGeometry x="679" y="1440" width="60" height="30" as="geometry" />
        </mxCell>
        <mxCell id="oFMm2v5QkO-AcwL_Ac-e-54" value="" style="shape=mxgraph.bpmn.shape;html=1;verticalLabelPosition=bottom;labelBackgroundColor=#ffffff;verticalAlign=top;perimeter=ellipsePerimeter;outline=end;symbol=terminate;rounded=0;shadow=0;comic=0;strokeWidth=1;fontFamily=Verdana;fontSize=12;align=center;" vertex="1" parent="1">
          <mxGeometry x="375" y="1785" width="40" height="40" as="geometry" />
        </mxCell>
        <mxCell id="oFMm2v5QkO-AcwL_Ac-e-56" value="Fiche modifiée" style="text;html=1;align=center;verticalAlign=middle;resizable=0;points=[];autosize=1;" vertex="1" parent="1">
          <mxGeometry x="340" y="1840" width="100" height="30" as="geometry" />
        </mxCell>
        <mxCell id="oFMm2v5QkO-AcwL_Ac-e-59" style="edgeStyle=orthogonalEdgeStyle;rounded=0;orthogonalLoop=1;jettySize=auto;html=1;" edge="1" parent="1" source="oFMm2v5QkO-AcwL_Ac-e-57" target="oFMm2v5QkO-AcwL_Ac-e-54">
          <mxGeometry relative="1" as="geometry" />
        </mxCell>
        <mxCell id="oFMm2v5QkO-AcwL_Ac-e-57" value="Retourner à la page d&#39;accueil" style="rounded=1;whiteSpace=wrap;html=1;shadow=0;comic=0;labelBackgroundColor=none;strokeWidth=1;fontFamily=Verdana;fontSize=12;align=center;arcSize=50;" vertex="1" parent="1">
          <mxGeometry x="339.5" y="1680" width="111" height="50" as="geometry" />
        </mxCell>
      </root>
    </mxGraphModel>
  </diagram>
</mxfile>
